<svg width="617" height="679" viewBox="0 0 617 679" fill="none" xmlns="http://www.w3.org/2000/svg">
<path d="M306.733 534C279.404 510.523 251.229 487.522 224.534 463.093C197.839 438.664 170.537 413.125 145.534 386.264C110.936 349.092 78.1888 310.149 44.5693 272.051C42.0848 269.223 41.6883 267.24 44.1992 264.12C90.7961 207.833 136.944 151.018 189.884 100.548C224.719 67.315 262.118 36.7791 298.513 5.18555C306.627 -1.84698 308.16 -1.60903 316.539 5.18555C364.536 44.2082 411.9 83.9975 454.347 129.101C483.421 160.007 510.961 192.393 538.925 224.278C550.951 237.973 562.342 252.223 574.5 266.817C495.684 365.748 408.147 456.087 306.733 534ZM305.729 312.74C297.429 318.027 290.716 321.702 284.584 326.197C280.99 328.841 278.902 327.995 276.259 325.219C269.122 317.737 261.801 310.44 254.612 303.01C249.987 298.225 245.441 293.387 240.498 288.205C217.002 317.499 199.108 348.325 190.73 384.969C193.822 384.334 196.016 383.937 198.025 383.462C225.248 377.275 248.242 362.787 270.735 347.004C278.188 341.716 284.346 334.604 291.324 328.497C301.896 319.349 313.763 311.312 323.411 301.213C341.066 282.706 357.321 263.115 374.448 244.212C392.303 224.381 406.528 201.56 416.472 176.795C420.513 167.55 422.669 157.591 422.816 147.502C401.01 148.163 344.079 181.528 331.366 195.619L371.012 235.805L353.964 258.383L307.658 212.672L255.009 266.05L305.729 312.74ZM164.194 366.938C177.409 328.655 197.602 296.348 221.733 266.076C197.443 236.149 176.484 204.767 165.436 167.357C164.505 167.919 163.621 168.555 162.793 169.26C137.922 197.443 112.918 225.547 88.2587 253.862C76.6029 267.266 76.9202 267.557 88.5496 281.358C88.7082 281.516 88.7874 281.728 88.946 281.887L164.194 366.938ZM539.664 266.922L451.308 166.246C439.493 205.031 418.137 236.36 394.879 266.975C418.454 297.3 439.123 328.893 451.545 367.255L539.664 266.922ZM405.504 120.138C398.209 113.185 392.288 106.919 385.813 101.447C361.233 80.1111 336.467 59.0135 311.808 37.7044C308.425 34.7697 306.072 35.0606 302.821 37.8894C278.585 59.0399 254.136 79.7938 230.005 100.944C223.107 106.972 217.002 113.846 210.077 120.773C246.868 133.172 277.712 154.772 308.081 177.879C337.017 153.203 369.968 133.673 405.504 120.138ZM405.926 412.623C399.742 410.27 394.958 408.736 390.412 406.701C362.078 394.142 336.784 376.72 312.68 357.526C309.27 354.882 307.394 354.882 303.852 357.526C286.487 369.846 269.149 382.272 250.991 393.376C238.622 400.964 224.904 406.383 210.42 413.442L308.055 499.816L405.926 412.623ZM422.208 385.259C424.428 366.092 394.535 303.936 376.747 289.078L329.86 337.301C357.479 357.658 386.949 376.773 422.208 385.286V385.259ZM191.232 146.444C196.518 184.991 217.874 214.046 237.221 240.669L286.064 195.46C256.885 175.42 228.578 153.873 191.232 146.444Z" fill="#81582A"/>
<path d="M513.135 630.507C513.042 631.888 512.93 632.86 512.923 633.812C512.923 642.731 512.923 651.65 512.923 660.569C512.923 660.899 512.923 661.23 512.923 661.56C513.042 664.396 513.26 664.68 516.156 665.731C516.421 665.876 516.671 666.046 516.903 666.24C515.243 666.67 513.75 666.491 512.276 666.524C510.802 666.557 509.189 666.524 507.649 666.524C506.109 666.524 504.562 666.524 503.022 666.524C501.46 666.575 499.897 666.521 498.342 666.366C498.666 666.029 498.785 665.784 498.937 665.764C501.488 665.427 502.493 663.874 502.453 661.435C502.453 660.225 502.506 659.016 502.506 657.799C502.506 637.643 502.506 617.492 502.506 597.345C502.506 596.241 502.466 595.144 502.4 594.04C502.301 592.302 501.468 591.151 499.697 590.781C499.274 590.689 498.864 590.543 498.157 590.345C498.586 590.048 498.818 589.777 498.996 589.777C504.826 589.777 510.661 589.79 516.499 589.816C516.658 589.816 516.817 590.021 516.988 590.134C516.817 590.861 516.156 590.695 515.666 590.795C514.892 590.922 514.191 591.328 513.697 591.937C513.202 592.546 512.948 593.316 512.983 594.099C512.956 594.76 512.943 595.421 512.943 596.082C512.943 605.667 512.943 615.251 512.943 624.829C512.943 626.012 512.732 627.248 513.459 628.537C513.933 628.691 514.423 628.793 514.92 628.841C523.067 628.841 531.22 628.841 539.376 628.841C539.794 628.809 540.208 628.738 540.612 628.63C541.564 627.526 541.273 626.263 541.273 625.093C541.306 617.717 541.273 610.34 541.273 602.963C541.273 600.425 541.273 597.894 541.273 595.362C541.227 591.978 541.068 591.786 537.869 590.669C537.681 590.573 537.507 590.45 537.354 590.305C537.466 590.153 537.559 589.876 537.684 589.863C541.134 589.486 553.33 589.598 556.43 590.008C556.536 590.702 555.954 590.623 555.577 590.722C552.451 591.528 552.061 592.004 551.962 595.23C551.962 595.891 551.962 596.552 551.962 597.213C551.962 618.03 551.962 638.844 551.962 659.657V660.318C552.001 664.647 552.028 664.687 556.199 666.009C556.199 666.101 556.199 666.214 556.199 666.267C556.119 666.344 556.017 666.392 555.908 666.405C550.845 666.454 545.777 666.494 540.705 666.524C539.826 666.524 538.947 666.485 538.061 666.425C537.896 666.425 537.737 666.227 537.479 666.055C537.734 665.868 538.015 665.719 538.312 665.612C540.553 665.176 541.32 663.775 541.313 661.58C541.26 651.89 541.313 642.2 541.28 632.497C541.252 631.951 541.193 631.409 541.101 630.87C539.998 629.972 538.748 630.17 537.578 630.163C532.403 630.163 527.227 630.163 522.052 630.163C520.174 630.163 518.304 630.163 516.433 630.163C515.409 630.236 514.444 630.381 513.135 630.507Z" fill="#81582A"/>
<path d="M354.351 583.041C355.482 584.25 356.334 585.07 357.075 585.956C363.773 593.702 370.46 601.458 377.136 609.222C386.566 620.138 396.005 631.042 405.453 641.935C406.226 642.827 406.887 643.878 408.282 644.453C408.523 643.968 408.708 643.455 408.83 642.926C408.923 641.942 408.903 640.943 408.903 639.959C408.903 625.972 408.903 611.988 408.903 598.005C408.903 596.789 408.903 595.573 408.81 594.37C408.586 592.175 407.74 591.296 405.565 590.82C404.831 590.662 404.091 590.556 403.291 590.411C403.463 590.126 403.549 589.849 403.648 589.842C408.176 589.485 414.759 589.644 417.529 590.259C416.372 590.549 415.691 590.748 414.997 590.92C414.169 591.038 413.411 591.453 412.866 592.087C412.32 592.722 412.023 593.533 412.029 594.37C411.93 595.798 411.924 597.232 411.924 598.666C411.924 617.716 411.924 636.766 411.924 655.816V664.627C410.879 665.182 410.569 664.389 410.185 663.966C406.332 659.59 402.511 655.181 398.658 650.792C385.953 636.308 373.24 621.832 360.518 607.365C359.818 606.572 359.329 605.468 357.947 605.23C357.713 605.563 357.535 605.931 357.418 606.321C357.329 607.307 357.289 608.298 357.299 609.289C357.299 624.919 357.299 640.562 357.299 656.219C357.299 657.752 357.458 659.293 357.61 660.846C357.855 663.292 359.011 664.977 361.576 665.473C361.989 665.581 362.391 665.725 362.779 665.903C362.779 666.088 362.819 666.22 362.779 666.306C362.749 666.349 362.71 666.385 362.664 666.411C362.618 666.438 362.567 666.454 362.515 666.458C358.879 666.524 355.244 666.59 351.621 666.63C350.96 666.63 350.366 666.524 349.638 666.458C350.213 665.46 351.093 665.717 351.773 665.506C353.637 664.924 354.074 664.475 354.199 662.492C354.292 661.17 354.265 659.848 354.265 658.526C354.265 638.255 354.265 617.985 354.265 597.715C354.265 593.533 354.276 589.346 354.298 585.156C354.199 584.574 354.272 584.065 354.351 583.041Z" fill="#81582A"/>
<path d="M256.968 644.784C257.516 647.984 257.946 650.581 258.422 653.179C258.944 656.025 260.328 658.642 262.388 660.675C268.813 667.113 276.5 669.545 285.337 666.934C291.465 665.123 295.391 660.84 297.295 654.719C298.465 650.951 297.698 647.547 295.503 644.388C293.725 641.856 291.517 639.655 288.979 637.884C286.382 636.04 283.691 634.295 281.047 632.543C277.643 630.309 274.153 628.2 270.809 625.88C264.939 621.815 261.165 616.309 259.843 609.223C259.052 605.436 259.153 601.516 260.14 597.775C262.493 589.459 267.94 584.323 276.394 582.731C286.097 580.893 294.961 583.173 302.94 588.957C303.139 589.158 303.317 589.379 303.468 589.618C303.363 591.601 302.477 593.498 301.908 595.481C301.34 597.464 301.029 599.447 299.859 601.754C299.448 600.324 299.268 598.838 299.324 597.352C299.377 592.288 296.892 588.831 292.602 586.452C287.135 583.425 281.365 582.631 275.376 584.396C271.944 585.335 268.93 587.406 266.823 590.272C264.736 593.019 263.681 596.412 263.842 599.858C264.003 603.303 265.369 606.583 267.702 609.124C270.427 612.019 273.587 614.473 277.068 616.395C280.486 618.378 283.949 620.361 287.347 622.344C291.524 624.816 295.333 627.862 298.663 631.393C303.812 636.938 305.755 643.443 304.414 650.885C303.954 653.784 302.837 656.539 301.148 658.939C299.46 661.34 297.244 663.322 294.671 664.733C287.466 668.845 279.752 669.803 271.688 667.972C265.634 666.603 260.098 663.532 255.731 659.121C255.146 658.631 254.726 657.972 254.527 657.234C254.328 656.496 254.361 655.715 254.621 654.997C255.507 651.804 256.108 648.579 256.968 644.784Z" fill="#81582A"/>
<path d="M571.818 666.24C572.009 666.035 572.122 665.817 572.287 665.757C575.499 664.64 575.625 664.495 575.79 661.131C575.843 660.033 575.83 658.929 575.83 657.826C575.83 637.67 575.83 617.514 575.83 597.358C575.83 596.261 575.83 595.157 575.731 594.053C575.625 592.328 574.845 591.138 573.027 590.821C572.617 590.731 572.211 590.621 571.811 590.49C571.752 589.677 572.313 589.796 572.67 589.776C573.992 589.71 575.314 589.677 576.636 589.677C587.869 589.677 599.106 589.677 610.347 589.677C611.669 589.677 612.991 589.472 614.26 590.061C614.44 590.336 614.571 590.64 614.65 590.96C614.809 594.265 614.934 597.569 615.073 600.874C614.161 600.874 614.22 600.213 614.048 599.777C613.387 598.257 612.892 596.684 612.251 595.15C611.79 594.019 611.032 593.034 610.057 592.3C609.082 591.566 607.926 591.109 606.711 590.979C605.951 590.852 605.182 590.783 604.411 590.774C599.238 590.774 594.062 590.774 588.884 590.774C588.194 590.819 587.508 590.907 586.829 591.039C586.617 591.658 586.473 592.299 586.399 592.949C586.399 604.186 586.399 615.423 586.399 626.66C586.444 627.263 586.526 627.864 586.644 628.458C587.356 628.671 588.086 628.817 588.825 628.894C593.67 628.934 598.515 628.894 603.367 628.894C603.803 628.894 604.246 628.854 604.689 628.828C607.293 628.636 609.005 627.36 609.613 624.756C609.759 624.141 609.911 623.533 610.142 622.555V637.216C609.712 635.947 609.428 635.028 609.084 634.129C608.747 633.189 608.162 632.358 607.392 631.721C606.622 631.085 605.695 630.668 604.709 630.513C603.619 630.302 602.513 630.192 601.404 630.183C597.438 630.137 593.472 630.137 589.506 630.15C588.528 630.15 587.523 630.051 586.703 630.811C586.174 633.587 586.042 644.447 586.34 661.481C586.34 662.446 586.479 663.418 586.531 664.171C587.622 665.057 588.64 664.944 589.618 664.951C594.8 664.951 599.978 664.951 605.152 664.951C606.031 664.951 606.903 664.812 607.796 664.753C610.975 664.528 613.083 662.836 614.405 660.02C615.066 658.539 615.727 657.039 616.514 655.307C617.274 656.246 616.917 657.105 616.911 657.885C616.911 658.877 616.831 659.868 616.778 660.86C616.732 661.739 616.739 662.624 616.607 663.503C616.474 664.383 616.21 665.176 615.985 666.081C615.31 666.227 614.625 666.326 613.936 666.379C600.165 666.436 586.401 666.482 572.644 666.518C572.357 666.464 572.079 666.37 571.818 666.24Z" fill="#81582A"/>
<path d="M239.458 623.751V635.814C239.259 635.662 239.061 635.589 239.035 635.477C238.281 632.08 236.067 630.407 232.682 630.341C227.619 630.249 222.556 630.268 217.48 630.262C217.012 630.333 216.555 630.459 216.118 630.639C215.937 631.262 215.815 631.902 215.754 632.549C215.728 642.464 215.728 652.379 215.754 662.294C215.801 663.008 215.891 663.719 216.025 664.422C216.727 664.671 217.454 664.842 218.194 664.931C224.03 664.977 229.867 664.931 235.697 664.977C240.092 665.017 243.014 663.047 244.521 658.909C245.01 657.587 245.612 656.265 246.154 654.99C246.967 654.95 246.755 655.538 246.729 655.869C246.484 659.174 246.2 662.439 245.922 665.836C245.278 666.068 244.614 666.241 243.939 666.352C242.075 666.471 240.205 666.563 238.334 666.57C226.991 666.57 215.649 666.57 204.306 666.57C203.235 666.57 202.158 666.471 201.001 666.411C201.411 665.479 202.184 665.605 202.759 665.46C204.412 665.03 205.086 663.926 205.179 662.333C205.218 661.672 205.232 661.011 205.232 660.35V595.917C205.232 595.474 205.232 595.031 205.232 594.595C205.079 592.056 204.637 591.541 202.026 590.754C201.662 590.649 201.318 590.47 200.281 590.04C201.418 589.875 201.808 589.763 202.204 589.763C215.636 589.763 229.076 589.763 242.525 589.763C242.929 589.805 243.326 589.896 243.708 590.034C244.6 592.949 244.911 597.225 244.554 601.132C243.959 601.132 243.893 600.623 243.761 600.246C243.232 598.924 242.736 597.602 242.207 596.241C240.802 592.676 238.182 590.856 234.348 590.781C233.8 590.781 233.244 590.734 232.696 590.734C228.181 590.734 223.667 590.734 219.152 590.734C218.286 590.734 217.414 590.847 216.402 590.92C216.166 591.522 215.974 592.14 215.827 592.77C215.756 593.429 215.733 594.092 215.761 594.753C215.761 604.774 215.761 614.795 215.761 624.815C215.761 626.012 215.629 627.234 216.29 628.523C217 628.691 217.723 628.802 218.451 628.854C223.078 628.894 227.705 628.854 232.332 628.854C232.775 628.854 233.211 628.854 233.654 628.808C236.351 628.689 238.281 627.618 238.942 624.789C239.087 624.43 239.259 624.083 239.458 623.751Z" fill="#81582A"/>
<path d="M0 590.226C3.80071 589.486 15.3416 589.565 18.6466 590.154C17.7542 591.178 16.4058 590.511 15.454 591.416C14.912 592.024 15.1962 592.897 15.5135 593.71C16.3948 595.957 17.3224 598.194 18.2962 600.419C24.7123 615.512 31.1371 630.6 37.5708 645.684C37.9938 646.668 38.2318 647.786 39.2762 648.506C40.2412 648.136 40.4593 647.257 40.7766 646.483C42.7023 641.804 44.6192 637.117 46.5272 632.424C48.2656 628.141 49.9776 623.831 51.716 619.568C52.0796 618.662 52.5092 617.783 52.9389 616.831C54.4658 618.629 54.7103 619.475 54.0626 621.253C53.3619 623.236 52.5753 625.166 51.7954 627.103C46.9128 639.261 42.0215 651.412 37.1213 663.557C36.6719 664.667 36.1695 665.758 35.6804 666.862C34.5699 666.432 34.4641 665.461 34.1469 664.707C31.2187 657.7 28.3301 650.681 25.4218 643.661L5.59199 595.772C5.54572 595.666 5.50606 595.567 5.4664 595.461C4.50135 592.897 3.15954 590.696 0 590.226Z" fill="#81582A"/>
<path d="M80.4361 666.775C78.4531 663.741 61.8622 625.978 58.0549 616.123C58.4185 615.548 59.0729 614.94 59.1522 614.272C59.2036 613.29 59.0759 612.307 58.7754 611.37C56.4487 602.879 54.1066 594.389 51.7491 585.902C51.4318 584.759 50.9162 583.655 50.9757 582.544C51.6367 581.883 52.1853 582.095 52.5158 582.544C52.9378 583.186 53.2943 583.868 53.58 584.58C55.1333 588.11 56.6338 591.66 58.2069 595.156C58.6432 596.121 58.8679 597.278 59.9453 597.86C61.0228 597.199 61.1748 596.029 61.5846 595.05C62.9727 591.693 64.3079 588.315 65.6828 584.95C65.9521 584.228 66.2723 583.526 66.6412 582.849C67.1568 581.943 67.9301 581.751 69.0736 582.326C68.97 583.035 68.8154 583.735 68.611 584.422C66.8197 589.154 64.9887 593.88 63.171 598.607C63.0366 599.025 62.8732 599.434 62.6819 599.829C61.6375 601.654 61.9746 603.352 62.8735 605.15C64.7838 608.997 66.5685 612.904 68.3862 616.797C72.8501 626.381 77.3096 635.966 81.7647 645.55C82.1745 646.436 82.6637 647.282 83.2519 648.412C83.7609 647.917 84.2302 647.639 84.4219 647.229C84.9375 646.139 85.3539 644.995 85.7439 643.858C91.2125 628.981 96.6701 614.096 102.117 599.201C102.756 597.439 103.322 595.656 103.815 593.854C104.278 592.129 103.961 591.613 102.249 590.787C101.879 590.609 101.495 590.463 100.927 590.232C103.32 589.538 107.134 589.432 112.084 589.868C112.236 590.529 111.701 590.569 111.337 590.595C108.905 590.78 107.643 592.281 106.863 594.409C105.917 596.994 104.88 599.552 103.967 602.143C98.4944 617.262 93.028 632.379 87.5682 647.494C85.5853 652.98 83.5891 658.464 81.5796 663.946C81.3351 664.805 80.9451 665.592 80.4361 666.775Z" fill="#81582A"/>
<path d="M162.697 590.239C163.12 590.044 163.563 589.893 164.019 589.79C169.853 589.79 175.685 589.801 181.515 589.823C181.816 589.873 182.107 589.966 182.381 590.101C181.918 591.112 181.006 590.762 180.345 590.96C179.701 591.132 179.127 591.505 178.708 592.024C178.289 592.543 178.045 593.182 178.012 593.848C177.913 595.17 177.893 596.492 177.886 597.814C177.851 612.228 177.822 626.645 177.8 641.063C177.884 646.681 177.24 652.287 175.883 657.74C174.821 661.909 172.994 665.844 170.496 669.347C168.203 672.605 165.109 675.218 161.513 676.935C158.42 678.45 154.907 678.881 151.539 678.158C150.16 677.869 148.872 677.246 147.788 676.345C146.704 675.443 145.858 674.291 145.322 672.987C144.786 671.683 144.577 670.268 144.714 668.865C144.85 667.462 145.328 666.114 146.106 664.938C146.297 664.666 146.518 664.418 146.767 664.198C146.893 664.092 147.039 664.012 147.196 663.964C147.353 663.915 147.518 663.898 147.682 663.914C147.846 663.93 148.005 663.979 148.149 664.057C148.294 664.135 148.422 664.241 148.525 664.37C148.837 664.755 149.064 665.203 149.189 665.683C149.315 666.162 149.336 666.664 149.252 667.152C149.107 668.018 148.948 668.884 148.869 669.757C148.718 671.193 148.987 672.641 149.642 673.928C150.085 674.881 150.778 675.697 151.647 676.288C152.517 676.88 153.53 677.224 154.58 677.285C156.686 677.483 158.79 676.884 160.476 675.607C162.455 674.189 164.022 672.27 165.017 670.048C166.249 667.211 166.923 664.163 167 661.071C167.145 656.782 167.297 652.478 167.317 648.202C167.383 631.144 167.421 614.084 167.429 597.021C167.429 596.03 167.429 595.038 167.33 594.053C167.191 592.341 166.392 591.158 164.574 590.848C163.938 590.678 163.311 590.475 162.697 590.239Z" fill="#81582A"/>
<path d="M122.469 589.987C128.418 589.617 134.367 589.644 140.316 589.796C140.719 589.83 141.121 589.887 141.519 589.967C141.175 591.025 140.382 590.761 139.813 590.893C139.099 591.019 138.451 591.388 137.977 591.937C137.504 592.486 137.235 593.182 137.216 593.907C137.115 595.006 137.071 596.109 137.083 597.212C137.083 614.398 137.083 631.583 137.083 648.769V660.006C137.083 660.667 137.083 661.328 137.083 661.989C137.255 664.435 137.678 664.944 140.071 665.671C140.461 665.79 140.864 665.849 141.261 665.935C141.208 666.206 141.221 666.319 141.168 666.378C141.097 666.462 140.999 666.519 140.891 666.537C135.713 666.537 130.539 666.55 125.371 666.576C124.392 666.576 123.388 666.471 122.376 666.411C122.753 665.486 123.54 665.704 124.101 665.545C124.808 665.386 125.439 664.991 125.891 664.425C126.342 663.859 126.588 663.156 126.587 662.432C126.666 661.441 126.659 660.449 126.659 659.458C126.659 638.425 126.659 617.39 126.659 596.353C126.679 591.798 126.666 591.798 122.469 589.987Z" fill="#81582A"/>
<path d="M336.28 666.246C336.019 666.382 335.737 666.475 335.447 666.524C329.943 666.524 324.435 666.524 318.922 666.524C318.48 666.419 318.052 666.261 317.646 666.054C318.486 665.836 318.876 665.711 319.266 665.638C321.388 665.241 322.135 663.807 322.187 661.837C322.187 660.958 322.187 660.072 322.187 659.193C322.187 638.606 322.187 618.018 322.187 597.43C322.187 596.326 322.188 595.223 322.108 594.125C321.963 592.446 321.249 591.184 319.464 590.82C318.859 590.652 318.263 590.451 317.68 590.219C321.203 589.505 333.623 589.558 336.987 590.278C335.956 590.622 335.282 590.82 334.627 591.058C334.046 591.232 333.53 591.577 333.148 592.049C332.766 592.521 332.535 593.097 332.486 593.702C332.355 594.799 332.28 595.902 332.261 597.007C332.261 617.925 332.261 638.844 332.261 659.762C332.261 660.092 332.261 660.423 332.261 660.753C332.532 664.838 332.889 665.05 336.108 665.889C336.181 665.909 336.207 666.074 336.28 666.246Z" fill="#81582A"/>
<path d="M465.405 631.861C468.756 630.824 475.042 630.691 487.217 631.015C488.443 630.919 489.673 631.126 490.8 631.617C490.371 631.807 489.929 631.968 489.478 632.099C488.718 632.238 487.949 632.324 487.178 632.357C482.908 632.43 482.266 634.129 482.214 637.731C482.108 644.116 482.141 650.501 482.114 656.9V660.866C481.562 661.28 480.973 661.645 480.356 661.956C476.972 663.278 473.581 664.6 470.164 665.777C465.337 667.451 460.089 667.467 455.252 665.823C441.113 661.355 431.892 649.12 431.311 634.314C431 626.534 433.294 619.567 437.339 613.069C437.48 612.909 437.645 612.771 437.828 612.66C438.383 612.6 438.7 612.904 438.608 613.407C438.429 614.372 438.158 615.323 437.894 616.282C436.308 622.046 435.21 627.896 435.739 633.891C436.863 646.641 442.541 656.708 453.665 663.424C456.784 665.349 460.437 666.225 464.089 665.922C465.181 665.828 466.257 665.592 467.288 665.222C470.183 664.191 471.737 662.155 471.71 658.982C471.71 655.353 471.71 651.711 471.71 648.089C471.71 644.564 471.71 641.038 471.71 637.513C471.71 636.964 471.71 636.409 471.71 635.86C471.552 633.428 470.977 632.767 468.637 632.337C467.54 632.159 466.469 632.053 465.405 631.861Z" fill="#81582A"/>
<path d="M481.738 604.563C481.678 603.499 481.573 602.428 481.566 601.364C481.52 595.025 478.605 590.464 473.072 587.483C462.741 581.917 452.357 582.076 442.111 587.536C436.903 590.312 433.36 594.807 430.762 600.095C428.441 604.855 426.897 609.956 426.188 615.205C425.269 621.663 424.78 628.127 425.785 634.618C426.003 636.02 426.281 637.414 426.558 638.968L423.465 642.226C423.039 641.638 422.648 641.024 422.295 640.389C419.332 633.94 418.189 626.804 418.99 619.753C419.735 611.916 422.629 604.436 427.351 598.138C434.53 588.646 444.114 583.411 455.972 582.473C466.071 581.447 476.172 584.386 484.144 590.669C485.208 591.495 485.71 592.447 485.32 593.815C484.316 597.405 483.337 601.007 482.366 604.596L481.738 604.563Z" fill="#81582A"/>
</svg>
