<svg width="245" height="245" viewBox="0 0 245 245" fill="none" xmlns="http://www.w3.org/2000/svg">
<path d="M121.686 245C109.1 234.229 96.1252 223.676 83.8315 212.468C71.5379 201.259 58.9643 189.542 47.4498 177.218C31.5167 160.165 16.4356 142.297 0.952955 124.818C-0.191206 123.52 -0.373802 122.61 0.78253 121.179C22.2417 95.3543 43.4938 69.2872 67.8741 46.1314C83.9167 30.8843 101.14 16.8743 117.901 2.37914C121.638 -0.847397 122.344 -0.738228 126.202 2.37914C148.306 20.2827 170.118 38.5382 189.666 59.2316C203.056 73.4114 215.739 88.2704 228.616 102.899C234.154 109.182 239.401 115.72 245 122.416C208.703 167.806 168.39 209.254 121.686 245ZM121.224 143.485C117.402 145.911 114.31 147.598 111.486 149.659C109.831 150.872 108.869 150.485 107.652 149.211C104.366 145.778 100.994 142.43 97.6831 139.022C95.5531 136.826 93.4596 134.606 91.1835 132.229C80.3625 145.669 72.1222 159.813 68.2637 176.624C69.6877 176.333 70.698 176.151 71.6231 175.932C84.1602 173.095 94.7497 166.447 105.108 159.205C108.541 156.779 111.377 153.517 114.59 150.715C119.459 146.518 124.924 142.83 129.367 138.197C137.498 129.706 144.983 120.718 152.871 112.045C161.093 102.946 167.644 92.4762 172.225 81.1139C174.084 76.8721 175.078 72.3029 175.145 67.6741C165.103 67.9773 138.885 83.2852 133.031 89.7503L151.289 108.188L143.437 118.546L122.112 97.574L97.8658 122.064L121.224 143.485ZM56.0432 168.352C62.129 150.788 71.4284 135.965 82.5413 122.076C71.3554 108.345 61.703 93.9473 56.6152 76.7834C56.1864 77.0415 55.7793 77.3334 55.3979 77.6568C43.9442 90.5872 32.4295 103.481 21.0731 116.472C15.7052 122.622 15.8514 122.756 21.207 129.087C21.28 129.16 21.3165 129.257 21.3895 129.33L56.0432 168.352ZM228.957 122.464L188.266 76.2741C182.825 94.0686 172.991 108.442 162.28 122.489C173.137 136.402 182.655 150.896 188.377 168.498L228.957 122.464ZM167.172 55.1197C163.814 51.9295 161.086 49.0548 158.104 46.5439C146.785 36.755 135.38 27.0755 124.023 17.2988C122.465 15.9525 121.382 16.0858 119.885 17.3837C108.723 27.0876 97.4641 36.6095 86.3511 46.3133C83.1742 49.079 80.3625 52.2328 77.1735 55.4107C94.1169 61.0996 108.322 71.0098 122.307 81.6111C135.633 70.2896 150.808 61.3293 167.172 55.1197ZM167.368 189.312C164.519 188.233 162.315 187.529 160.223 186.595C147.174 180.834 135.526 172.839 124.425 164.033C122.855 162.821 121.991 162.821 120.36 164.033C112.363 169.686 104.378 175.387 96.0156 180.482C90.3191 183.962 84.002 186.449 77.3317 189.688L122.295 229.316L167.368 189.312ZM174.866 176.758C175.888 167.963 162.121 139.446 153.93 132.629L132.337 154.754C145.056 164.094 158.629 172.865 174.866 176.77V176.758ZM68.495 67.1888C70.9293 84.8741 80.7642 98.2048 89.6742 110.42L112.168 89.6776C98.7299 80.4831 85.6938 70.5973 68.495 67.1888Z" fill="#242321"/>
</svg>
